<svg width="820" height="855" viewBox="0 0 820 855" fill="none" xmlns="http://www.w3.org/2000/svg">
<path d="M499.859 194.773C544.495 167.601 522.693 132.559 567.163 133.601C572.78 133.734 657.411 153.958 739.841 279.748C822.273 405.541 787.986 546.769 753.852 606.152C753.829 606.204 753.804 606.255 753.781 606.307C750.922 606.083 748.032 605.968 745.116 605.968C684.819 605.968 635.938 654.849 635.938 715.146C635.938 736.652 642.158 756.705 652.894 773.606C652.25 774.389 651.605 775.169 650.959 775.942C621.969 803.062 540.06 854.43 472.728 854.43C405.397 854.43 428.923 794.434 458.556 780.303C488.188 766.174 645.841 637.573 645.841 493.932C645.841 350.292 517.724 269.961 453.665 256.869C444.748 254.425 438.961 253.025 434.896 248.867C415.259 227.826 468.204 214.044 499.859 194.773Z" fill="url(#paint0_linear_138_34)"/>
<path d="M435.254 240.924C509.554 240.656 665.558 280.355 695.17 441.294C701.875 489.307 685.191 606.577 564.81 691.552C559.052 695.616 553.807 699.133 549.048 702.138C597.315 648.685 645.841 573.624 645.841 493.932C645.841 350.291 517.724 269.961 453.665 256.869C444.748 254.424 438.961 253.025 434.896 248.867C432.318 246.104 430.992 243.466 430.704 240.924H435.254Z" fill="#F58E03"/>
<ellipse cx="743.196" cy="712.146" rx="75.89" ry="75.8885" fill="#FDAB03"/>
<path d="M319.227 194.774C274.591 167.602 296.394 132.559 251.924 133.601C246.312 133.733 161.677 153.955 79.2451 279.748C-3.18721 405.541 31.1 546.769 65.2334 606.152C65.2567 606.204 65.2812 606.256 65.3047 606.308C68.1635 606.084 71.0533 605.969 73.9697 605.969C134.267 605.969 183.147 654.849 183.147 715.146C183.147 736.652 176.928 756.705 166.191 773.606C166.836 774.389 167.48 775.17 168.127 775.943C197.117 803.063 279.026 854.43 346.357 854.43C413.689 854.43 390.163 794.433 360.53 780.303C330.898 766.174 173.245 637.574 173.245 493.933C173.245 350.292 301.362 269.961 365.421 256.869C374.338 254.425 380.125 253.025 384.189 248.867C403.827 227.826 350.882 214.045 319.227 194.774Z" fill="url(#paint1_linear_138_34)"/>
<path d="M383.832 240.924C309.532 240.656 153.528 280.354 123.916 441.293C117.21 489.306 133.894 606.577 254.276 691.552C260.034 695.617 265.28 699.133 270.04 702.139C221.772 648.686 173.245 573.624 173.245 493.931C173.245 350.291 301.362 269.96 365.421 256.868C374.338 254.423 380.125 253.024 384.189 248.866C386.768 246.103 388.093 243.466 388.382 240.924H383.832Z" fill="#0754C9"/>
<ellipse cx="75.89" cy="75.8885" rx="75.89" ry="75.8885" transform="matrix(-1 0 0 1 151.78 636.257)" fill="#2180F9"/>
<ellipse cx="85.6473" cy="85.6457" rx="85.6473" ry="85.6457" transform="matrix(-1 0 0 1 495.36 0)" fill="url(#paint2_linear_138_34)"/>
<path d="M442.936 356.879C455.086 356.879 464.936 366.728 464.936 378.879V447.751H533.808C545.958 447.751 555.807 457.601 555.808 469.751V536.196C555.808 548.346 545.958 558.196 533.808 558.196H464.936V627.068C464.936 639.218 455.086 649.068 442.936 649.068H376.49C364.34 649.068 354.49 639.218 354.49 627.068V558.196H285.618C273.468 558.196 263.618 548.346 263.618 536.196V469.751C263.618 457.601 273.468 447.751 285.618 447.751H354.49V378.879C354.49 366.728 364.34 356.879 376.49 356.879H442.936Z" fill="url(#paint3_linear_138_34)"/>
<defs>
<linearGradient id="paint0_linear_138_34" x1="610.039" y1="133.579" x2="610.039" y2="854.43" gradientUnits="userSpaceOnUse">
<stop stop-color="#FDAB03"/>
<stop offset="1" stop-color="#F78E01"/>
</linearGradient>
<linearGradient id="paint1_linear_138_34" x1="209.047" y1="133.579" x2="209.047" y2="854.43" gradientUnits="userSpaceOnUse">
<stop stop-color="#2180F9"/>
<stop offset="1" stop-color="#196EEB"/>
</linearGradient>
<linearGradient id="paint2_linear_138_34" x1="85.6473" y1="0" x2="85.6473" y2="171.291" gradientUnits="userSpaceOnUse">
<stop stop-color="#064DC0"/>
<stop offset="1" stop-color="#2180F9"/>
</linearGradient>
<linearGradient id="paint3_linear_138_34" x1="409.713" y1="356.879" x2="409.713" y2="649.068" gradientUnits="userSpaceOnUse">
<stop stop-color="#2080F8"/>
<stop offset="1" stop-color="#064DBF"/>
</linearGradient>
</defs>
</svg>
